<?xml version="1.0" encoding="utf-8"?>
<!-- Generator: Adobe Illustrator 18.0.0, SVG Export Plug-In . SVG Version: 6.00 Build 0)  -->
<!DOCTYPE svg PUBLIC "-//W3C//DTD SVG 1.1//EN" "http://www.w3.org/Graphics/SVG/1.1/DTD/svg11.dtd">
<svg version="1.1" id="Layer_1" xmlns="http://www.w3.org/2000/svg" xmlns:xlink="http://www.w3.org/1999/xlink" x="0px" y="0px"
	 viewBox="0 0 810.1 179.8" enable-background="new 0 0 810.1 179.8" xml:space="preserve">
<g>
	<text transform="matrix(1 0 0 1 185.4496 119.5458)" fill="#3B83C4" font-family="'Poppins-SemiBold'" font-size="86.5872">Edmonton Tel</text>
	<path fill="#3B83C4" d="M75.1,101.5c1.3,1.2,3.3,1.1,4.5-0.1c5.5-5.8,14.8-5.8,20.3,0c1.2,1.3,3.2,1.3,4.5,0.1
		c1.3-1.2,1.3-3.2,0.1-4.4c-8-8.5-21.5-8.5-29.4,0C73.8,98.4,73.9,100.3,75.1,101.5z M69.2,89.5c1.3,1.2,3.2,1.1,4.5-0.2
		c8.8-9.3,23.5-9.3,32.2,0c1.2,1.3,3.2,1.3,4.5,0.2c1.3-1.2,1.3-3.2,0.2-4.5c-11.2-12-30.2-12-41.5,0C67.8,86.3,67.9,88.3,69.2,89.5
		z M63.5,77.4c1.3,1.2,3.3,1.1,4.5-0.2c11.8-12.6,31.8-12.6,43.6,0c1.2,1.3,3.2,1.3,4.5,0.2c1.3-1.2,1.3-3.2,0.2-4.5
		c-14.3-15.3-38.5-15.3-52.8,0C62.1,74.2,62.2,76.3,63.5,77.4z M63.5,77.4c1.3,1.2,3.3,1.1,4.5-0.2c11.8-12.6,31.8-12.6,43.6,0
		c1.2,1.3,3.2,1.3,4.5,0.2c1.3-1.2,1.3-3.2,0.2-4.5c-14.3-15.3-38.5-15.3-52.8,0C62.1,74.2,62.2,76.3,63.5,77.4z M69,85
		c-1.2,1.3-1.1,3.2,0.2,4.5c1.3,1.2,3.2,1.1,4.5-0.2c8.8-9.3,23.5-9.3,32.2,0c1.2,1.3,3.2,1.3,4.5,0.2c1.3-1.2,1.3-3.2,0.2-4.5
		C99.2,73.1,80.3,73,69,85z M75,97.1c-1.2,1.3-1.1,3.2,0.1,4.4c1.3,1.2,3.3,1.1,4.5-0.1c5.5-5.8,14.8-5.8,20.3,0
		c1.2,1.3,3.2,1.3,4.5,0.1c1.3-1.2,1.3-3.2,0.1-4.4C96.5,88.6,83,88.6,75,97.1z M15.2,82.1c0,40.4,32.8,73.2,73.2,73.2
		c12.3,0,23.9-3,34.1-8.4l41.7,11l-12.8-38.5c6.5-10.9,10.3-23.7,10.3-37.3c0-40.4-32.8-73.2-73.2-73.2S15.2,41.7,15.2,82.1z
		 M35.9,83.4c0-29.7,24.1-53.8,53.9-53.8c29.7,0,53.8,24.1,53.8,53.8c0,29.7-24.1,53.9-53.8,53.9C60,137.3,35.9,113.1,35.9,83.4z
		 M43,83.4c0,25.8,20.9,46.7,46.7,46.7c25.7,0,46.7-20.9,46.7-46.7c0-25.7-20.9-46.7-46.7-46.7C64,36.7,43,57.7,43,83.4z M50.2,83.4
		c0-21.8,17.7-39.5,39.6-39.5c21.8,0,39.5,17.7,39.5,39.5c0,21.8-17.7,39.6-39.5,39.6C67.9,123,50.2,105.2,50.2,83.4z M63.3,73
		c-1.2,1.3-1.1,3.3,0.2,4.5c1.3,1.2,3.3,1.1,4.5-0.2c11.8-12.6,31.8-12.6,43.6,0c1.2,1.3,3.2,1.3,4.5,0.2c1.3-1.2,1.3-3.2,0.2-4.5
		C101.8,57.7,77.7,57.7,63.3,73z M69,85c-1.2,1.3-1.1,3.2,0.2,4.5c1.3,1.2,3.2,1.1,4.5-0.2c8.8-9.3,23.5-9.3,32.2,0
		c1.2,1.3,3.2,1.3,4.5,0.2c1.3-1.2,1.3-3.2,0.2-4.5C99.2,73.1,80.3,73,69,85z M75,97.1c-1.2,1.3-1.1,3.2,0.1,4.4
		c1.3,1.2,3.3,1.1,4.5-0.1c5.5-5.8,14.8-5.8,20.3,0c1.2,1.3,3.2,1.3,4.5,0.1c1.3-1.2,1.3-3.2,0.1-4.4C96.5,88.6,83,88.6,75,97.1z"/>
</g>
</svg>
