<?xml version="1.0" encoding="utf-8"?>
<!-- Generator: Adobe Illustrator 18.0.0, SVG Export Plug-In . SVG Version: 6.00 Build 0)  -->
<!DOCTYPE svg PUBLIC "-//W3C//DTD SVG 1.1//EN" "http://www.w3.org/Graphics/SVG/1.1/DTD/svg11.dtd">
<svg version="1.1" id="Layer_1" xmlns="http://www.w3.org/2000/svg" xmlns:xlink="http://www.w3.org/1999/xlink" x="0px" y="0px"
	 viewBox="0 0 630.1 176.8" enable-background="new 0 0 630.1 176.8" xml:space="preserve">
<g>
	<text transform="matrix(1 0 0 1 153.8723 111.0038)" fill="#3B83C4" font-family="'Poppins-SemiBold'" font-size="66.0151">edmonton tel</text>
	<path fill="#3B83C4" d="M69.8,97.3c1,0.9,2.5,0.9,3.4-0.1c4.2-4.5,11.3-4.5,15.5,0c0.9,1,2.4,1,3.4,0.1c1-0.9,1-2.4,0.1-3.4
		c-6.1-6.5-16.4-6.5-22.4,0C68.8,94.8,68.8,96.4,69.8,97.3z M65.2,88.1c1,0.9,2.5,0.8,3.4-0.1c6.7-7.1,17.9-7.1,24.6,0
		c0.9,1,2.4,1,3.4,0.1c1-0.9,1-2.4,0.1-3.4c-8.6-9.1-23-9.2-31.6,0C64.2,85.7,64.2,87.2,65.2,88.1z M60.9,78.9
		c1,0.9,2.5,0.9,3.4-0.1c9-9.6,24.2-9.6,33.2,0c0.9,1,2.4,1,3.4,0.1c1-0.9,1-2.4,0.1-3.4c-10.9-11.6-29.3-11.6-40.3,0
		C59.8,76.5,59.9,78,60.9,78.9z M60.9,78.9c1,0.9,2.5,0.9,3.4-0.1c9-9.6,24.2-9.6,33.2,0c0.9,1,2.4,1,3.4,0.1c1-0.9,1-2.4,0.1-3.4
		c-10.9-11.6-29.3-11.6-40.3,0C59.8,76.5,59.9,78,60.9,78.9z M65.1,84.7c-0.9,1-0.8,2.5,0.1,3.4c1,0.9,2.5,0.8,3.4-0.1
		c6.7-7.1,17.9-7.1,24.6,0c0.9,1,2.4,1,3.4,0.1c1-0.9,1-2.4,0.1-3.4C88.1,75.6,73.7,75.5,65.1,84.7z M69.7,93.9
		c-0.9,1-0.9,2.5,0.1,3.4c1,0.9,2.5,0.9,3.4-0.1c4.2-4.5,11.3-4.5,15.5,0c0.9,1,2.4,1,3.4,0.1c1-0.9,1-2.4,0.1-3.4
		C86,87.4,75.8,87.4,69.7,93.9z M24.1,82.5c0,30.8,25,55.8,55.8,55.8c9.4,0,18.2-2.3,26-6.4l31.8,8.4l-9.8-29.3
		c5-8.3,7.8-18.1,7.8-28.5c0-30.8-25-55.8-55.8-55.8S24.1,51.7,24.1,82.5z M39.8,83.5c0-22.6,18.4-41,41.1-41c22.6,0,41,18.4,41,41
		c0,22.7-18.4,41.1-41,41.1C58.2,124.5,39.8,106.1,39.8,83.5z M45.3,83.5c0,19.6,16,35.6,35.6,35.6c19.6,0,35.6-16,35.6-35.6
		c0-19.6-16-35.6-35.6-35.6C61.3,47.9,45.3,63.8,45.3,83.5z M50.7,83.5c0-16.6,13.5-30.1,30.2-30.1c16.6,0,30.1,13.5,30.1,30.1
		c0,16.6-13.5,30.2-30.1,30.2C64.3,113.6,50.7,100.1,50.7,83.5z M60.8,75.5c-0.9,1-0.8,2.5,0.1,3.4c1,0.9,2.5,0.9,3.4-0.1
		c9-9.6,24.2-9.6,33.2,0c0.9,1,2.4,1,3.4,0.1c1-0.9,1-2.4,0.1-3.4C90.1,63.9,71.7,63.9,60.8,75.5z M65.1,84.7
		c-0.9,1-0.8,2.5,0.1,3.4c1,0.9,2.5,0.8,3.4-0.1c6.7-7.1,17.9-7.1,24.6,0c0.9,1,2.4,1,3.4,0.1c1-0.9,1-2.4,0.1-3.4
		C88.1,75.6,73.7,75.5,65.1,84.7z M69.7,93.9c-0.9,1-0.9,2.5,0.1,3.4c1,0.9,2.5,0.9,3.4-0.1c4.2-4.5,11.3-4.5,15.5,0
		c0.9,1,2.4,1,3.4,0.1c1-0.9,1-2.4,0.1-3.4C86,87.4,75.8,87.4,69.7,93.9z"/>
</g>
</svg>
